<svg width="24" height="24" viewBox="0 0 24 24" fill="none" xmlns="http://www.w3.org/2000/svg">
<path d="M13.4006 21.8996L12.0006 20.4996L15.5506 16.9496L7.05059 8.44961L3.50059 11.9996L2.10059 10.5996L3.50059 9.14961L2.10059 7.74961L4.20059 5.64961L2.80059 4.19961L4.20059 2.79961L5.65059 4.19961L7.75059 2.09961L9.15059 3.49961L10.6006 2.09961L12.0006 3.49961L8.45059 7.04961L16.9506 15.5496L20.5006 11.9996L21.9006 13.3996L20.5006 14.8496L21.9006 16.2496L19.8006 18.3496L21.2006 19.7996L19.8006 21.1996L18.3506 19.7996L16.2506 21.8996L14.8506 20.4996L13.4006 21.8996Z" fill="white" fill-opacity="0.5"/>
</svg>
