<svg width="32" height="33" viewBox="0 0 32 33" fill="none" xmlns="http://www.w3.org/2000/svg">
<path d="M26.6 28.1125C23.8222 28.1125 21.0778 27.5069 18.3667 26.2958C15.6556 25.0847 13.1889 23.368 10.9667 21.1458C8.74444 18.9236 7.02778 16.4569 5.81667 13.7458C4.60556 11.0347 4 8.29027 4 5.51249C4 5.11249 4.13333 4.77915 4.4 4.51249C4.66667 4.24582 5 4.11249 5.4 4.11249H10.8C11.1111 4.11249 11.3889 4.21804 11.6333 4.42915C11.8778 4.64027 12.0222 4.89027 12.0667 5.17915L12.9333 9.84582C12.9778 10.2014 12.9667 10.5014 12.9 10.7458C12.8333 10.9903 12.7111 11.2014 12.5333 11.3792L9.3 14.6458C9.74444 15.468 10.2722 16.2625 10.8833 17.0292C11.4944 17.7958 12.1667 18.5347 12.9 19.2458C13.5889 19.9347 14.3111 20.5736 15.0667 21.1625C15.8222 21.7514 16.6222 22.2903 17.4667 22.7792L20.6 19.6458C20.8 19.4458 21.0611 19.2958 21.3833 19.1958C21.7056 19.0958 22.0222 19.068 22.3333 19.1125L26.9333 20.0458C27.2444 20.1347 27.5 20.2958 27.7 20.5292C27.9 20.7625 28 21.0236 28 21.3125V26.7125C28 27.1125 27.8667 27.4458 27.6 27.7125C27.3333 27.9792 27 28.1125 26.6 28.1125ZM8.03333 12.1125L10.2333 9.91249L9.66667 6.77915H6.7C6.81111 7.69027 6.96667 8.59027 7.16667 9.47915C7.36667 10.368 7.65556 11.2458 8.03333 12.1125ZM19.9667 24.0458C20.8333 24.4236 21.7167 24.7236 22.6167 24.9458C23.5167 25.168 24.4222 25.3125 25.3333 25.3792V22.4458L22.2 21.8125L19.9667 24.0458Z" fill="white"/>
</svg>
