<svg width="48" height="48" viewBox="0 0 48 48" fill="none" xmlns="http://www.w3.org/2000/svg">
<rect width="48" height="48" rx="24" fill="#FF007A"/>
<rect x="0.5" y="0.5" width="47" height="47" rx="23.5" stroke="white" stroke-opacity="0.1"/>
<g clip-path="url(#clip0_355_1522)">
<path d="M31.999 18.9988L32.939 16.9388L34.999 15.9988L32.939 15.0588L31.999 12.9988L31.059 15.0588L28.999 15.9988L31.059 16.9388L31.999 18.9988Z" fill="white"/>
<path d="M20.5 18.9988L21.44 16.9388L23.5 15.9988L21.44 15.0588L20.5 12.9988L19.56 15.0588L17.5 15.9988L19.56 16.9388L20.5 18.9988Z" fill="white"/>
<path d="M32 24.4988L31.06 26.5588L29 27.4988L31.06 28.4388L32 30.4988L32.94 28.4388L35 27.4988L32.94 26.5588L32 24.4988Z" fill="white"/>
<path d="M29.7096 21.1188L26.8796 18.2888C26.6796 18.0988 26.4296 17.9988 26.1696 17.9988C25.9096 17.9988 25.6596 18.0988 25.4596 18.2888L14.2896 29.4588C13.8996 29.8488 13.8996 30.4788 14.2896 30.8688L17.1196 33.6988C17.3196 33.8988 17.5696 33.9988 17.8296 33.9988C18.0896 33.9988 18.3396 33.8988 18.5396 33.7088L29.7096 22.5388C30.0996 22.1488 30.0996 21.5088 29.7096 21.1188ZM26.1696 20.4188L27.5796 21.8288L26.4096 22.9988L24.9996 21.5888L26.1696 20.4188ZM17.8296 31.5888L16.4196 30.1788L23.5896 22.9988L24.9996 24.4088L17.8296 31.5888Z" fill="white"/>
</g>
<defs>
<clipPath id="clip0_355_1522">
<rect width="24" height="24" fill="white" transform="translate(12 12)"/>
</clipPath>
</defs>
</svg>
