<svg width="24" height="24" viewBox="0 0 24 24" fill="none" xmlns="http://www.w3.org/2000/svg">
<path d="M2.95026 16.3C2.63359 15.6167 2.39609 14.9167 2.23776 14.2C2.07943 13.4833 2.00026 12.75 2.00026 12C2.00026 10.6167 2.26276 9.31667 2.78776 8.1C3.31276 6.88333 4.02526 5.825 4.92526 4.925C5.82526 4.025 6.88359 3.3125 8.10026 2.7875C9.31693 2.2625 10.6169 2 12.0003 2C13.3836 2 14.6836 2.2625 15.9003 2.7875C17.1169 3.3125 18.1753 4.025 19.0753 4.925C19.9753 5.825 20.6878 6.88333 21.2128 8.1C21.7378 9.31667 22.0003 10.6167 22.0003 12C22.0003 13.3833 21.7378 14.6833 21.2128 15.9C20.6878 17.1167 19.9753 18.175 19.0753 19.075C18.1753 19.975 17.1169 20.6875 15.9003 21.2125C14.6836 21.7375 13.3836 22 12.0003 22C11.2503 22 10.5169 21.9208 9.80026 21.7625C9.08359 21.6042 8.38359 21.3667 7.70026 21.05L2.75026 22.5C2.36693 22.6167 2.03359 22.5333 1.75026 22.25C1.46693 21.9667 1.38359 21.6333 1.50026 21.25L2.95026 16.3ZM3.95026 20.05L7.15026 19.1C7.38359 19.0333 7.62109 19.0083 7.86276 19.025C8.10443 19.0417 8.33359 19.1 8.55026 19.2C9.08359 19.4667 9.64193 19.6667 10.2253 19.8C10.8086 19.9333 11.4003 20 12.0003 20C14.2336 20 16.1253 19.225 17.6753 17.675C19.2253 16.125 20.0003 14.2333 20.0003 12C20.0003 9.76667 19.2253 7.875 17.6753 6.325C16.1253 4.775 14.2336 4 12.0003 4C9.76693 4 7.87526 4.775 6.32526 6.325C4.77526 7.875 4.00026 9.76667 4.00026 12C4.00026 12.6 4.06693 13.1917 4.20026 13.775C4.33359 14.3583 4.53359 14.9167 4.80026 15.45C4.91693 15.6667 4.97943 15.8958 4.98776 16.1375C4.99609 16.3792 4.96693 16.6167 4.90026 16.85L3.95026 20.05ZM11.0003 13V15C11.0003 15.2833 11.0961 15.5208 11.2878 15.7125C11.4794 15.9042 11.7169 16 12.0003 16C12.2836 16 12.5211 15.9042 12.7128 15.7125C12.9044 15.5208 13.0003 15.2833 13.0003 15V13H15.0003C15.2836 13 15.5211 12.9042 15.7128 12.7125C15.9044 12.5208 16.0003 12.2833 16.0003 12C16.0003 11.7167 15.9044 11.4792 15.7128 11.2875C15.5211 11.0958 15.2836 11 15.0003 11H13.0003V9C13.0003 8.71667 12.9044 8.47917 12.7128 8.2875C12.5211 8.09583 12.2836 8 12.0003 8C11.7169 8 11.4794 8.09583 11.2878 8.2875C11.0961 8.47917 11.0003 8.71667 11.0003 9V11H9.00026C8.71693 11 8.47943 11.0958 8.28776 11.2875C8.09609 11.4792 8.00026 11.7167 8.00026 12C8.00026 12.2833 8.09609 12.5208 8.28776 12.7125C8.47943 12.9042 8.71693 13 9.00026 13H11.0003Z" fill="white"/>
</svg>
