<svg width="24" height="25" viewBox="0 0 24 25" fill="none" xmlns="http://www.w3.org/2000/svg">
<rect y="0.225006" width="24" height="24" rx="12" fill="#964DF4"/>
<path d="M13.3333 18.0414V16.6747C14.3333 16.3859 15.1389 15.8303 15.75 15.0081C16.3611 14.1859 16.6667 13.2525 16.6667 12.2081C16.6667 11.1636 16.3611 10.2303 15.75 9.40808C15.1389 8.58586 14.3333 8.0303 13.3333 7.74141V6.37475C14.7111 6.68586 15.8333 7.38308 16.7 8.46641C17.5667 9.54975 18 10.797 18 12.2081C18 13.6192 17.5667 14.8664 16.7 15.9497C15.8333 17.0331 14.7111 17.7303 13.3333 18.0414ZM6 14.2247V10.2247H8.66667L12 6.89141V17.5581L8.66667 14.2247H6ZM13.3333 14.8914V9.52475C13.8556 9.76919 14.2639 10.1359 14.5583 10.6247C14.8528 11.1136 15 11.647 15 12.2247C15 12.7914 14.8528 13.3164 14.5583 13.7997C14.2639 14.2831 13.8556 14.647 13.3333 14.8914ZM10.6667 10.1247L9.23333 11.5581H7.33333V12.8914H9.23333L10.6667 14.3247V10.1247Z" fill="white"/>
</svg>
