<svg width="24" height="24" viewBox="0 0 24 24" fill="none" xmlns="http://www.w3.org/2000/svg">
<path d="M9 14.251C8.65 14.251 8.35417 14.1301 8.1125 13.8885C7.87083 13.6468 7.75 13.351 7.75 13.001C7.75 12.651 7.87083 12.3551 8.1125 12.1135C8.35417 11.8718 8.65 11.751 9 11.751C9.35 11.751 9.64583 11.8718 9.8875 12.1135C10.1292 12.3551 10.25 12.651 10.25 13.001C10.25 13.351 10.1292 13.6468 9.8875 13.8885C9.64583 14.1301 9.35 14.251 9 14.251ZM15 14.251C14.65 14.251 14.3542 14.1301 14.1125 13.8885C13.8708 13.6468 13.75 13.351 13.75 13.001C13.75 12.651 13.8708 12.3551 14.1125 12.1135C14.3542 11.8718 14.65 11.751 15 11.751C15.35 11.751 15.6458 11.8718 15.8875 12.1135C16.1292 12.3551 16.25 12.651 16.25 13.001C16.25 13.351 16.1292 13.6468 15.8875 13.8885C15.6458 14.1301 15.35 14.251 15 14.251ZM12 20.001C14.2333 20.001 16.125 19.226 17.675 17.676C19.225 16.126 20 14.2343 20 12.001C20 11.601 19.975 11.2135 19.925 10.8385C19.875 10.4635 19.7833 10.101 19.65 9.75098C19.3 9.83431 18.95 9.89681 18.6 9.93848C18.25 9.98014 17.8833 10.001 17.5 10.001C15.9833 10.001 14.55 9.67598 13.2 9.02598C11.85 8.37598 10.7 7.46764 9.75 6.30098C9.21667 7.60098 8.45417 8.73014 7.4625 9.68848C6.47083 10.6468 5.31667 11.3676 4 11.851V12.001C4 14.2343 4.775 16.126 6.325 17.676C7.875 19.226 9.76667 20.001 12 20.001ZM12 22.001C10.6167 22.001 9.31667 21.7385 8.1 21.2135C6.88333 20.6885 5.825 19.976 4.925 19.076C4.025 18.176 3.3125 17.1176 2.7875 15.901C2.2625 14.6843 2 13.3843 2 12.001C2 10.6176 2.2625 9.31764 2.7875 8.10098C3.3125 6.88431 4.025 5.82598 4.925 4.92598C5.825 4.02598 6.88333 3.31348 8.1 2.78848C9.31667 2.26348 10.6167 2.00098 12 2.00098C13.3833 2.00098 14.6833 2.26348 15.9 2.78848C17.1167 3.31348 18.175 4.02598 19.075 4.92598C19.975 5.82598 20.6875 6.88431 21.2125 8.10098C21.7375 9.31764 22 10.6176 22 12.001C22 13.3843 21.7375 14.6843 21.2125 15.901C20.6875 17.1176 19.975 18.176 19.075 19.076C18.175 19.976 17.1167 20.6885 15.9 21.2135C14.6833 21.7385 13.3833 22.001 12 22.001ZM10.65 4.12598C11.35 5.29264 12.3 6.23014 13.5 6.93848C14.7 7.64681 16.0333 8.00098 17.5 8.00098C17.7333 8.00098 17.9583 7.98848 18.175 7.96348C18.3917 7.93848 18.6167 7.90931 18.85 7.87598C18.15 6.70931 17.2 5.77181 16 5.06348C14.8 4.35514 13.4667 4.00098 12 4.00098C11.7667 4.00098 11.5417 4.01348 11.325 4.03848C11.1083 4.06348 10.8833 4.09264 10.65 4.12598ZM4.425 9.47598C5.275 8.99264 6.01667 8.36764 6.65 7.60098C7.28333 6.83431 7.75833 5.97598 8.075 5.02598C7.225 5.50931 6.48333 6.13431 5.85 6.90098C5.21667 7.66764 4.74167 8.52598 4.425 9.47598Z" fill="white" fill-opacity="0.5"/>
</svg>
