<svg width="24" height="24" viewBox="0 0 24 24" fill="none" xmlns="http://www.w3.org/2000/svg">
<path d="M5.49902 22V14.5H3.99902V9C3.99902 8.45 4.19486 7.97917 4.58652 7.5875C4.97819 7.19583 5.44902 7 5.99902 7H8.99902C9.54902 7 10.0199 7.19583 10.4115 7.5875C10.8032 7.97917 10.999 8.45 10.999 9V14.5H9.49902V22H5.49902ZM7.49902 6C6.94902 6 6.47819 5.80417 6.08652 5.4125C5.69486 5.02083 5.49902 4.55 5.49902 4C5.49902 3.45 5.69486 2.97917 6.08652 2.5875C6.47819 2.19583 6.94902 2 7.49902 2C8.04902 2 8.51986 2.19583 8.91152 2.5875C9.30319 2.97917 9.49902 3.45 9.49902 4C9.49902 4.55 9.30319 5.02083 8.91152 5.4125C8.51986 5.80417 8.04902 6 7.49902 6ZM14.999 22V16H11.999L14.549 8.35C14.6824 7.91667 14.9282 7.58333 15.2865 7.35C15.6449 7.11667 16.049 7 16.499 7C16.949 7 17.3532 7.11667 17.7115 7.35C18.0699 7.58333 18.3157 7.91667 18.449 8.35L20.999 16H17.999V22H14.999ZM16.499 6C15.949 6 15.4782 5.80417 15.0865 5.4125C14.6949 5.02083 14.499 4.55 14.499 4C14.499 3.45 14.6949 2.97917 15.0865 2.5875C15.4782 2.19583 15.949 2 16.499 2C17.049 2 17.5199 2.19583 17.9115 2.5875C18.3032 2.97917 18.499 3.45 18.499 4C18.499 4.55 18.3032 5.02083 17.9115 5.4125C17.5199 5.80417 17.049 6 16.499 6Z" fill="white" fill-opacity="0.5"/>
</svg>
